<svg height="100%" viewBox="0 0 104 28" fill="none"
  xmlns="http://www.w3.org/2000/svg">
  <g clip-path="url(#clip0_6141_59646)">
    <path d="M47.4006 15.961C46.2471 21.1416 42.9122 22.2322 40.2905 22.2322C35.7602 22.2322 32.9287 18.9184 32.9287 13.612C32.9287 8.30562 35.7602 4.99176 40.2905 4.99176C44.0029 4.99176 46.4568 7.11011 47.4006 11.1161C47.4254 11.1887 47.4286 11.2669 47.41 11.3413C47.3914 11.4157 47.3517 11.4832 47.2958 11.5356C47.2513 11.5855 47.1962 11.6246 47.1344 11.6501C47.0726 11.6755 47.0059 11.6866 46.9392 11.6824H44.5692C44.4444 11.6943 44.3199 11.6572 44.222 11.5789C44.1242 11.5006 44.0606 11.3873 44.0448 11.2629C43.6673 9.01873 42.3669 7.8442 40.2905 7.8442C37.7317 7.8442 36.2426 9.94157 36.2426 13.612C36.2426 17.2824 37.7527 19.3798 40.2905 19.3798C42.3459 19.3798 43.6673 18.1213 44.0448 15.8352C44.0606 15.7109 44.1242 15.5976 44.222 15.5193C44.3199 15.441 44.4444 15.4038 44.5692 15.4157H46.9392C47.0059 15.4116 47.0726 15.4226 47.1344 15.448C47.1962 15.4735 47.2513 15.5126 47.2958 15.5625C47.3479 15.6131 47.3852 15.677 47.4037 15.7472C47.4222 15.8174 47.4211 15.8914 47.4006 15.961V15.961Z" fill="#332089"/>
    <path d="M60.0268 9.85766H57.6987C57.5652 9.85766 57.4372 9.9107 57.3428 10.0051C57.2484 10.0995 57.1953 10.2275 57.1953 10.361V10.8854C56.5661 10.0255 55.5804 9.62695 54.1541 9.62695C50.6515 9.62695 48.4912 12.0809 48.4912 16.0449C48.4912 20.009 50.6096 22.2322 54.1541 22.2322C55.5804 22.2322 56.5661 21.8547 57.1953 21.0786V21.4981C57.1953 21.6316 57.2484 21.7597 57.3428 21.8541C57.4372 21.9485 57.5652 22.0015 57.6987 22.0015H60.0268C60.1603 22.0015 60.2883 21.9485 60.3827 21.8541C60.4771 21.7597 60.5302 21.6316 60.5302 21.4981V10.361C60.5302 10.2275 60.4771 10.0995 60.3827 10.0051C60.2883 9.9107 60.1603 9.85766 60.0268 9.85766V9.85766ZM54.5317 19.6105C52.8328 19.6105 51.826 18.2682 51.826 16.0449C51.826 13.8217 52.8747 12.2487 54.5317 12.2487C56.1886 12.2487 57.1953 13.7378 57.1953 16.0449C57.1953 18.352 56.2096 19.6105 54.5317 19.6105Z" fill="#332089"/>
    <path d="M67.7245 12.3745V18.9393C67.7245 19.233 67.8504 19.3798 68.144 19.3798H70.4301C70.4953 19.3797 70.5598 19.3929 70.6197 19.4184C70.6797 19.4439 70.7338 19.4814 70.7789 19.5284C70.824 19.5755 70.859 19.6311 70.882 19.6921C70.905 19.7531 70.9154 19.8181 70.9125 19.8832V21.4981C70.9154 21.5632 70.905 21.6282 70.882 21.6892C70.859 21.7502 70.824 21.8058 70.7789 21.8529C70.7338 21.8999 70.6797 21.9373 70.6197 21.9629C70.5598 21.9884 70.4953 22.0016 70.4301 22.0015H67.6826C65.6901 22.0015 64.4107 20.7011 64.4107 18.7086V12.3955L63.0683 12.4794C62.9998 12.4855 62.9307 12.4768 62.8657 12.4539C62.8008 12.4311 62.7415 12.3946 62.6918 12.3469C62.6421 12.2992 62.6032 12.2414 62.5777 12.1775C62.5522 12.1135 62.5407 12.0448 62.544 11.976V10.3611C62.541 10.2942 62.552 10.2274 62.5762 10.165C62.6005 10.1025 62.6375 10.0459 62.6848 9.9985C62.7322 9.95115 62.7889 9.91418 62.8513 9.88994C62.9137 9.86569 62.9805 9.85471 63.0474 9.85769L64.4107 9.96256V7.57155C64.4078 7.50645 64.4182 7.44146 64.4412 7.38049C64.4642 7.31952 64.4992 7.26384 64.5443 7.2168C64.5894 7.16976 64.6435 7.13234 64.7035 7.1068C64.7634 7.08125 64.8279 7.06811 64.8931 7.06818H67.2211C67.3547 7.06818 67.4827 7.12121 67.5771 7.21561C67.6715 7.31001 67.7245 7.43804 67.7245 7.57155V9.96256L70.4092 9.85769C70.4761 9.85471 70.5428 9.86569 70.6053 9.88994C70.6677 9.91418 70.7244 9.95115 70.7717 9.9985C70.8191 10.0459 70.856 10.1025 70.8803 10.165C70.9045 10.2274 70.9155 10.2942 70.9125 10.3611V11.976C70.9154 12.0411 70.905 12.1061 70.882 12.1671C70.859 12.2281 70.824 12.2837 70.7789 12.3308C70.7338 12.3778 70.6797 12.4152 70.6197 12.4408C70.5598 12.4663 70.4953 12.4795 70.4301 12.4794L67.7245 12.3745Z" fill="#332089"/>
    <path d="M76.0301 5.72584V21.4981C76.0301 21.6316 75.9771 21.7597 75.8827 21.8541C75.7883 21.9485 75.6603 22.0015 75.5268 22.0015H73.1987C73.1335 22.0016 73.069 21.9884 73.0091 21.9629C72.9492 21.9373 72.895 21.8999 72.8499 21.8529C72.8048 21.8058 72.7698 21.7502 72.7468 21.6892C72.7238 21.6282 72.7134 21.5632 72.7163 21.4981V5.72584C72.7134 5.66075 72.7238 5.59576 72.7468 5.53479C72.7698 5.47382 72.8048 5.41814 72.8499 5.3711C72.895 5.32406 72.9492 5.28664 73.0091 5.26109C73.069 5.23555 73.1335 5.22241 73.1987 5.22247H75.5268C75.6603 5.22247 75.7883 5.27551 75.8827 5.36991C75.9771 5.46431 76.0301 5.59234 76.0301 5.72584V5.72584Z" fill="#332089"/>
    <path d="M84.1885 9.62695C80.4762 9.62695 78.2739 12.018 78.2739 16.0449C78.2739 20.0719 80.4342 22.2322 84.1885 22.2322C87.9428 22.2322 90.0612 19.967 90.0612 16.0449C90.0612 12.1228 87.8589 9.62695 84.1885 9.62695ZM84.1885 19.6105C82.972 19.6105 81.5878 19.212 81.5878 16.0449C81.5878 13.4861 82.4477 12.2487 84.1885 12.2487C85.9294 12.2487 86.7473 13.4861 86.7473 16.0449C86.7473 19.212 85.384 19.6105 84.1885 19.6105Z" fill="#332089"/>
    <path d="M103.128 9.85766H100.8C100.733 9.85469 100.666 9.86567 100.604 9.88991C100.541 9.91416 100.485 9.95113 100.437 9.99848C100.39 10.0458 100.353 10.1025 100.329 10.1649C100.304 10.2274 100.293 10.2941 100.296 10.361V11.0951C99.6462 10.1303 98.6395 9.62695 97.2972 9.62695C93.5219 9.62695 91.6133 11.7873 91.6133 16.0449C91.6133 19.8831 93.4799 21.7708 97.2972 21.7708C98.6605 21.7708 99.6462 21.3513 100.296 20.5123V21.7498C100.296 23.5116 99.5414 24.2457 97.7586 24.2457C96.3743 24.2457 95.5354 23.7423 95.5354 22.9034C95.5354 22.7754 95.4846 22.6527 95.3941 22.5623C95.3036 22.4718 95.1809 22.421 95.053 22.421H92.7249C92.6598 22.4181 92.5948 22.4285 92.5338 22.4515C92.4729 22.4745 92.4172 22.5095 92.3702 22.5546C92.3231 22.5997 92.2857 22.6538 92.2601 22.7138C92.2346 22.7737 92.2215 22.8382 92.2215 22.9034C92.2215 25.8397 95.1998 26.8674 97.7586 26.8674C101.702 26.8674 103.61 25.1895 103.61 21.7498V10.361C103.613 10.2959 103.603 10.231 103.58 10.17C103.557 10.109 103.522 10.0533 103.477 10.0063C103.432 9.95925 103.377 9.92183 103.317 9.89628C103.258 9.87074 103.193 9.8576 103.128 9.85766ZM100.296 15.4157V16.5902C100.15 18.3311 99.2477 19.1491 97.5279 19.1491C95.808 19.1491 94.9481 18.2262 94.9481 16.0449C94.9481 13.5281 95.808 12.2487 97.5279 12.2487C99.2477 12.2487 100.129 13.3813 100.296 15.4157Z" fill="#332089"/>
    <path d="M21.7918 0H6.20824C2.77952 0 0 2.77952 0 6.20824V21.7855C0 25.2142 2.77952 27.9937 6.20824 27.9937H21.7918C25.2205 27.9937 28 25.2142 28 21.7855V6.20824C28 2.77952 25.2205 0 21.7918 0Z" fill="#332089"/>
    <path d="M20.785 13.6749H7.21495C6.76319 13.6749 6.39697 14.0411 6.39697 14.4929V15.8981C6.39697 16.3499 6.76319 16.7161 7.21495 16.7161H20.785C21.2367 16.7161 21.603 16.3499 21.603 15.8981V14.4929C21.603 14.0411 21.2367 13.6749 20.785 13.6749Z" fill="white"/>
    <path d="M20.9453 9.08946L7.58143 6.73304C7.13654 6.6546 6.71229 6.95166 6.63384 7.39655L6.38982 8.78045C6.31137 9.22534 6.60844 9.64959 7.05333 9.72804L20.4172 12.0845C20.8621 12.1629 21.2864 11.8658 21.3648 11.4209L21.6088 10.037C21.6873 9.59215 21.3902 9.1679 20.9453 9.08946Z" fill="white"/>
    <path d="M20.785 18.2262H7.21495C6.76319 18.2262 6.39697 18.5924 6.39697 19.0442V20.4494C6.39697 20.9012 6.76319 21.2674 7.21495 21.2674H20.785C21.2367 21.2674 21.603 20.9012 21.603 20.4494V19.0442C21.603 18.5924 21.2367 18.2262 20.785 18.2262Z" fill="white"/>
  </g>
  <defs>
    <clipPath id="clip0_6141_59646">
      <rect width="103.61" height="28" fill="white"/>
    </clipPath>
  </defs>
</svg>
